<svg width="45" height="42" viewBox="0 0 45 42" fill="none" xmlns="http://www.w3.org/2000/svg">
<path d="M4.66667 37.3333V4.66667V15.1083V14V37.3333ZM9.33333 23.3333H22.225C22.3028 22.4778 22.4972 21.6611 22.8083 20.8833C23.1194 20.1056 23.5083 19.3667 23.975 18.6667H9.33333V23.3333ZM9.33333 32.6667H18.4917C19.1528 31.8889 19.9111 31.2569 20.7667 30.7708C21.6222 30.2847 22.5167 29.8861 23.45 29.575C23.2944 29.3417 23.1583 29.0889 23.0417 28.8167C22.925 28.5444 22.8278 28.2722 22.75 28H9.33333V32.6667ZM9.33333 14H32.6667V9.33333H9.33333V14ZM4.66667 42C3.38333 42 2.28472 41.5431 1.37083 40.6292C0.456944 39.7153 0 38.6167 0 37.3333V4.66667C0 3.38333 0.456944 2.28472 1.37083 1.37083C2.28472 0.456944 3.38333 0 4.66667 0H37.3333C38.6167 0 39.7153 0.456944 40.6292 1.37083C41.5431 2.28472 42 3.38333 42 4.66667V19.7167C41.4556 18.7056 40.7944 17.8111 40.0167 17.0333C39.2389 16.2556 38.3444 15.6139 37.3333 15.1083V4.66667H4.66667V37.3333H16.45C16.4111 37.5667 16.3819 37.8 16.3625 38.0333C16.3431 38.2667 16.3333 38.5 16.3333 38.7333V42H4.66667ZM28.525 28.6417C27.3972 27.5139 26.8333 26.1333 26.8333 24.5C26.8333 22.8667 27.3972 21.4861 28.525 20.3583C29.6528 19.2306 31.0333 18.6667 32.6667 18.6667C34.3 18.6667 35.6806 19.2306 36.8083 20.3583C37.9361 21.4861 38.5 22.8667 38.5 24.5C38.5 26.1333 37.9361 27.5139 36.8083 28.6417C35.6806 29.7694 34.3 30.3333 32.6667 30.3333C31.0333 30.3333 29.6528 29.7694 28.525 28.6417ZM21 42V38.7333C21 37.8 21.2431 36.9347 21.7292 36.1375C22.2153 35.3403 22.9056 34.7667 23.8 34.4167C25.2 33.8333 26.6486 33.3958 28.1458 33.1042C29.6431 32.8125 31.15 32.6667 32.6667 32.6667C34.1833 32.6667 35.6903 32.8125 37.1875 33.1042C38.6847 33.3958 40.1333 33.8333 41.5333 34.4167C42.4278 34.7667 43.1181 35.3403 43.6042 36.1375C44.0903 36.9347 44.3333 37.8 44.3333 38.7333V42H21Z" fill="#0053A0"/>
</svg>
