<svg width="42" height="38" viewBox="0 0 42 38" fill="none" xmlns="http://www.w3.org/2000/svg">
<path d="M4.66667 32.4333V35.5833C4.66667 36.0792 4.49906 36.4947 4.16383 36.8299C3.82822 37.1655 3.4125 37.3333 2.91667 37.3333H1.75C1.25417 37.3333 0.838639 37.1655 0.503417 36.8299C0.167806 36.4947 0 36.0792 0 35.5833V16.6833L4.95833 1.75C5.15278 1.20556 5.47361 0.777778 5.92083 0.466667C6.36806 0.155556 6.88333 0 7.46667 0H34.5333C35.1167 0 35.6319 0.155556 36.0792 0.466667C36.5264 0.777778 36.8472 1.20556 37.0417 1.75L42 16.6833V35.5833C42 36.0792 41.8324 36.4947 41.4972 36.8299C41.1616 37.1655 40.7458 37.3333 40.25 37.3333H39.025C38.5194 37.3333 38.1111 37.1655 37.8 36.8299C37.4889 36.4947 37.3333 36.0792 37.3333 35.5833V32.4333H4.66667ZM4.84167 13.1833H37.1583L33.95 3.5H8.05L4.84167 13.1833ZM9.66933 26.0167C10.5731 26.0167 11.3264 25.7104 11.9292 25.0979C12.5319 24.4854 12.8333 23.7417 12.8333 22.8667C12.8333 21.9594 12.5271 21.188 11.9146 20.5526C11.3021 19.9175 10.5583 19.6 9.68333 19.6C8.77606 19.6 8.00469 19.9162 7.36925 20.5485C6.73419 21.1812 6.41667 21.9493 6.41667 22.8527C6.41667 23.7564 6.73283 24.5097 7.36517 25.1125C7.99789 25.7153 8.76595 26.0167 9.66933 26.0167ZM32.375 26.0167C33.2823 26.0167 34.0536 25.7104 34.6891 25.0979C35.3241 24.4854 35.6417 23.7417 35.6417 22.8667C35.6417 21.9594 35.3255 21.188 34.6932 20.5526C34.0604 19.9175 33.2924 19.6 32.389 19.6C31.4852 19.6 30.7319 19.9162 30.1292 20.5485C29.5264 21.1812 29.225 21.9493 29.225 22.8527C29.225 23.7564 29.5312 24.5097 30.1437 25.1125C30.7562 25.7153 31.5 26.0167 32.375 26.0167ZM3.5 28.9333H38.5V16.6833H3.5V28.9333Z" fill="#0053A0"/>
</svg>
