<svg width="42" height="49" viewBox="0 0 42 49" fill="none" xmlns="http://www.w3.org/2000/svg">
<path d="M3.5 49C2.5375 49 1.71364 48.6572 1.02842 47.9716C0.342806 47.2864 0 46.4625 0 45.5V14.5833C0 13.6208 0.342806 12.7968 1.02842 12.1112C1.71364 11.4259 2.5375 11.0833 3.5 11.0833H9.91667C9.91667 8.05 10.9569 5.44444 13.0375 3.26667C15.1181 1.08889 17.675 0 20.7083 0C23.8552 0 26.5378 1.06944 28.756 3.20833C30.9742 5.34722 32.0833 7.97222 32.0833 11.0833H38.5C39.4625 11.0833 40.2866 11.4259 40.9722 12.1112C41.6574 12.7968 42 13.6208 42 14.5833V45.5C42 46.4625 41.6574 47.2864 40.9722 47.9716C40.2866 48.6572 39.4625 49 38.5 49H3.5ZM3.5 45.5H38.5V14.5833H3.5V45.5ZM28.9917 25.2C31.2472 22.9444 32.375 20.2806 32.375 17.2083H28.875C28.875 19.3472 28.0972 21.1944 26.5417 22.75C24.9861 24.3056 23.1389 25.0833 21 25.0833C18.8611 25.0833 17.0139 24.3056 15.4583 22.75C13.9028 21.1944 13.125 19.3472 13.125 17.2083H9.625C9.625 20.2806 10.7528 22.9444 13.0083 25.2C15.2639 27.4556 17.9278 28.5833 21 28.5833C24.0722 28.5833 26.7361 27.4556 28.9917 25.2ZM13.4167 11.0833H28.5833C28.5833 8.94444 27.8542 7.14583 26.3958 5.6875C24.9375 4.22917 23.1389 3.5 21 3.5C18.8611 3.5 17.0625 4.22917 15.6042 5.6875C14.1458 7.14583 13.4167 8.94444 13.4167 11.0833Z" fill="#0053A0"/>
</svg>
