<svg width="15" height="21" viewBox="0 0 15 21" fill="none" xmlns="http://www.w3.org/2000/svg">
<path d="M0 17.777L1.12646 16.4662C2.69325 18.3402 5.0076 19.4155 7.45507 19.4155C11.623 19.4155 12.8109 17.1011 12.8109 15.3705C12.8109 9.41051 0.645156 12.5134 0.645156 5.42696C0.645156 2.10904 3.62514 0.00974221 7.30147 0.00974221C9.90256 -0.113144 12.4217 0.931386 14.1728 2.86684L13.0157 4.1469C11.5717 2.44698 9.4315 1.50485 7.20931 1.59702C4.50582 1.59702 2.46796 3.14333 2.46796 5.3348C2.46796 10.537 14.6337 7.67987 14.6337 15.2476C14.6337 17.8589 12.903 20.9925 7.42435 20.9925C4.58774 21.1051 1.86378 19.9173 0.0102505 17.7667" fill="white"/>
</svg>
