<svg width="14" height="20" viewBox="0 0 14 20" fill="none" xmlns="http://www.w3.org/2000/svg">
<path d="M11.7112 19.9999L6.108 11.7213H1.70619V19.9999H0V0H7.46086C10.9136 0 13.5487 2.19081 13.5487 5.84552C13.6799 8.88438 11.3276 11.4588 8.28871 11.5901C8.19785 11.5901 8.09689 11.5901 8.00603 11.5901L13.791 19.9797H11.7213L11.7112 19.9999ZM11.7415 5.84552C11.8122 3.54365 10.005 1.62544 7.71325 1.55477C7.58201 1.55477 7.44065 1.55477 7.30941 1.55477H1.70619V10.1565H7.30941C9.62136 10.2978 11.6002 8.54112 11.7415 6.22916C11.7415 6.09791 11.7415 5.96667 11.7415 5.84552Z" fill="white"/>
</svg>
