<svg width="24" height="24" viewBox="0 0 24 24" fill="none" xmlns="http://www.w3.org/2000/svg">
<path d="M21.1666 19.4988C23.0471 17.3681 24.0575 14.5973 23.9974 11.7564C23.8674 5.12432 18.3757 -0.137312 11.7436 0.00273191C5.31165 0.142775 0.13004 5.33439 0 11.7664C0 18.2384 5.1516 23.4 11.9537 23.7601H21.5367C22.0368 23.7601 22.447 23.36 22.457 22.8598C22.457 22.6197 22.3669 22.3797 22.1969 22.2096C21.7768 21.7895 20.7464 20.4291 21.1666 19.4888M17.7255 13.2969L14.7746 16.3078L13.004 18.1184C12.5239 18.6085 11.7436 18.6185 11.2535 18.1384L11.2335 18.1184L9.46294 16.3078L6.51202 13.2969C5.04156 11.7864 5.04156 9.38564 6.51202 7.87517C7.94246 6.40472 10.2832 6.37471 11.7536 7.79515C11.7837 7.81516 11.8037 7.84516 11.8337 7.87517L12.1338 8.17527L12.4339 7.87517C13.8543 6.40472 16.195 6.37471 17.6655 7.79515C17.6955 7.82516 17.7155 7.84516 17.7455 7.87517C19.216 9.38564 19.216 11.7864 17.7455 13.2969" fill="white"/>
</svg>
