<svg width="14" height="20" viewBox="0 0 14 20" fill="none" xmlns="http://www.w3.org/2000/svg">
<path d="M0.0100799 19.9901V0.0108047H7.49347C10.62 -0.180819 13.3128 2.19935 13.5044 5.32583C13.5145 5.49728 13.5145 5.67882 13.5044 5.85028C13.5952 8.99693 11.1141 11.6091 7.96749 11.6998C7.80613 11.6998 7.64476 11.6998 7.4834 11.6998H1.70443V20.0001H0L0.0100799 19.9901ZM11.7193 5.85028C11.81 3.57097 10.0249 1.64465 7.74561 1.56396C7.60441 1.56396 7.46322 1.56396 7.32202 1.56396H1.7246V10.1265H7.32202C9.60133 10.2778 11.568 8.55317 11.7193 6.27386C11.7193 6.13267 11.7294 5.99147 11.7193 5.85028Z" fill="white"/>
</svg>
