<svg width="19" height="21" viewBox="0 0 19 21" fill="none" xmlns="http://www.w3.org/2000/svg">
<path d="M0 10.2559C0 3.98926 4.75501 0.0050657 10.5511 0.0050657C13.8846 -0.10505 17.0179 1.58673 18.7598 4.42973L15.2561 6.33173C14.225 4.73004 12.4631 3.75902 10.5611 3.74901C7.14753 3.71898 4.3646 6.46187 4.34458 9.87547C4.34458 10.0056 4.34458 10.1257 4.34458 10.2559C4.16439 13.6595 6.77714 16.5725 10.1807 16.7527C10.3109 16.7527 10.431 16.7527 10.5611 16.7527C12.1028 16.7527 13.5943 16.2121 14.7856 15.2411V12.8686H9.55006V9.18474H19V16.7928C16.8678 19.2153 13.7845 20.5868 10.5611 20.5367C4.76502 20.5367 0.0100108 16.4924 0.0100108 10.2559" fill="white"/>
</svg>
