<svg width="47" height="45" viewBox="0 0 47 45" fill="none" xmlns="http://www.w3.org/2000/svg">
<path d="M3.52501 35.4264V41.1251H43.4752V35.4264H3.52501ZM3.52501 9.40003H10.8688C10.673 9.04753 10.5163 8.6069 10.3988 8.07815C10.2813 7.5494 10.2225 7.06961 10.2225 6.63877C10.2225 4.79793 10.8688 3.23126 12.1613 1.93876C13.4538 0.646252 15.0009 0 16.8026 0C18.0167 0 19.133 0.303543 20.1513 0.910628C21.1697 1.51771 21.9726 2.29126 22.5601 3.23126L23.5001 4.75877L24.4988 3.23126C25.1255 2.25209 25.9284 1.46876 26.9076 0.881253C27.8868 0.293751 28.9443 0 30.0801 0C31.9601 0 33.5464 0.63646 34.8389 1.90938C36.1314 3.1823 36.7776 4.75877 36.7776 6.63877C36.7776 7.06961 36.7287 7.50044 36.6308 7.93128C36.5328 8.36211 36.386 8.8517 36.1901 9.40003H43.4752C44.4152 9.40003 45.2377 9.75253 45.9427 10.4575C46.6477 11.1625 47.0002 11.985 47.0002 12.925V41.1251C47.0002 42.0651 46.6477 42.8877 45.9427 43.5927C45.2377 44.2977 44.4152 44.6502 43.4752 44.6502H3.52501C2.58501 44.6502 1.76251 44.2977 1.0575 43.5927C0.352501 42.8877 0 42.0651 0 41.1251V12.925C0 11.985 0.352501 11.1625 1.0575 10.4575C1.76251 9.75253 2.58501 9.40003 3.52501 9.40003ZM3.52501 29.1401H43.4752V12.925H28.8464L34.7214 21.0913L31.9014 23.2063L23.5001 11.5738L15.0988 23.2063L12.2788 21.0913L18.1538 12.925H3.52501V29.1401ZM19.0644 8.84191C19.6715 8.23482 19.9751 7.50044 19.9751 6.63877C19.9751 5.7771 19.6715 5.04273 19.0644 4.43564C18.4574 3.82856 17.723 3.52501 16.8613 3.52501C15.9996 3.52501 15.2653 3.82856 14.6582 4.43564C14.0511 5.04273 13.7475 5.7771 13.7475 6.63877C13.7475 7.50044 14.0511 8.23482 14.6582 8.84191C15.2653 9.44899 15.9996 9.75253 16.8613 9.75253C17.723 9.75253 18.4574 9.44899 19.0644 8.84191ZM30.0801 9.75253C30.9809 9.75253 31.7349 9.44899 32.342 8.84191C32.9491 8.23482 33.2526 7.50044 33.2526 6.63877C33.2526 5.7771 32.9491 5.04273 32.342 4.43564C31.7349 3.82856 30.9809 3.52501 30.0801 3.52501C29.2576 3.52501 28.5428 3.82856 27.9357 4.43564C27.3286 5.04273 27.0251 5.7771 27.0251 6.63877C27.0251 7.50044 27.3286 8.23482 27.9357 8.84191C28.5428 9.44899 29.2576 9.75253 30.0801 9.75253Z" fill="#0053A0"/>
</svg>
