<svg width="47" height="45" viewBox="0 0 47 45" fill="none" xmlns="http://www.w3.org/2000/svg">
<path d="M3.52498 35.426V41.1247H43.4747V35.426H3.52498ZM3.52498 9.39993H10.8687C10.6728 9.04744 10.5162 8.60681 10.3987 8.07807C10.2812 7.54932 10.2224 7.06953 10.2224 6.6387C10.2224 4.79788 10.8687 3.23123 12.1612 1.93874C13.4537 0.646245 15.0007 0 16.8024 0C18.0165 0 19.1328 0.30354 20.1511 0.910619C21.1694 1.5177 21.9723 2.29123 22.5598 3.23123L23.4998 4.75872L24.4986 3.23123C25.1252 2.25207 25.9282 1.46874 26.9073 0.881244C27.8865 0.293748 28.944 0 30.0798 0C31.9598 0 33.546 0.636454 34.8385 1.90936C36.131 3.18227 36.7772 4.75872 36.7772 6.6387C36.7772 7.06953 36.7283 7.50036 36.6304 7.93119C36.5325 8.36202 36.3856 8.8516 36.1898 9.39993H43.4747C44.4147 9.39993 45.2372 9.75243 45.9422 10.4574C46.6472 11.1624 46.9997 11.9849 46.9997 12.9249V41.1247C46.9997 42.0647 46.6472 42.8872 45.9422 43.5922C45.2372 44.2972 44.4147 44.6497 43.4747 44.6497H3.52498C2.58498 44.6497 1.76249 44.2972 1.05749 43.5922C0.352498 42.8872 0 42.0647 0 41.1247V12.9249C0 11.9849 0.352498 11.1624 1.05749 10.4574C1.76249 9.75243 2.58498 9.39993 3.52498 9.39993ZM3.52498 29.1398H43.4747V12.9249H28.8461L34.721 21.0911L31.901 23.2061L23.4998 11.5737L15.0986 23.2061L12.2787 21.0911L18.1536 12.9249H3.52498V29.1398ZM19.0642 8.84181C19.6713 8.23473 19.9749 7.50036 19.9749 6.6387C19.9749 5.77704 19.6713 5.04267 19.0642 4.43559C18.4572 3.82852 17.7228 3.52498 16.8611 3.52498C15.9995 3.52498 15.2651 3.82852 14.658 4.43559C14.0509 5.04267 13.7474 5.77704 13.7474 6.6387C13.7474 7.50036 14.0509 8.23473 14.658 8.84181C15.2651 9.44889 15.9995 9.75243 16.8611 9.75243C17.7228 9.75243 18.4572 9.44889 19.0642 8.84181ZM30.0798 9.75243C30.9806 9.75243 31.7346 9.44889 32.3417 8.84181C32.9487 8.23473 33.2523 7.50036 33.2523 6.6387C33.2523 5.77704 32.9487 5.04267 32.3417 4.43559C31.7346 3.82852 30.9806 3.52498 30.0798 3.52498C29.2573 3.52498 28.5425 3.82852 27.9354 4.43559C27.3284 5.04267 27.0248 5.77704 27.0248 6.6387C27.0248 7.50036 27.3284 8.23473 27.9354 8.84181C28.5425 9.44889 29.2573 9.75243 30.0798 9.75243Z" fill="#0053A0"/>
</svg>
