<svg width="47" height="45" viewBox="0 0 47 45" fill="none" xmlns="http://www.w3.org/2000/svg">
<path d="M3.525 35.4263V41.125H43.475V35.4263H3.525ZM3.525 9.40001H10.8688C10.6729 9.04751 10.5163 8.60688 10.3988 8.07813C10.2813 7.54938 10.2225 7.06959 10.2225 6.63876C10.2225 4.79792 10.8688 3.23125 12.1613 1.93875C13.4538 0.64625 15.0008 0 16.8025 0C18.0167 0 19.1329 0.303542 20.1513 0.910626C21.1696 1.51771 21.9725 2.29125 22.56 3.23125L23.5 4.75875L24.4988 3.23125C25.1254 2.25209 25.9284 1.46875 26.9075 0.881251C27.8867 0.29375 28.9442 0 30.08 0C31.96 0 33.5463 0.636459 34.8388 1.90938C36.1313 3.18229 36.7775 4.75875 36.7775 6.63876C36.7775 7.06959 36.7286 7.50042 36.6307 7.93126C36.5327 8.36209 36.3859 8.85167 36.19 9.40001H43.475C44.415 9.40001 45.2375 9.75251 45.9425 10.4575C46.6475 11.1625 47 11.985 47 12.925V41.125C47 42.065 46.6475 42.8875 45.9425 43.5925C45.2375 44.2975 44.415 44.65 43.475 44.65H3.525C2.585 44.65 1.7625 44.2975 1.0575 43.5925C0.3525 42.8875 0 42.065 0 41.125V12.925C0 11.985 0.3525 11.1625 1.0575 10.4575C1.7625 9.75251 2.585 9.40001 3.525 9.40001ZM3.525 29.14H43.475V12.925H28.8463L34.7213 21.0913L31.9013 23.2063L23.5 11.5738L15.0988 23.2063L12.2788 21.0913L18.1538 12.925H3.525V29.14ZM19.0644 8.84188C19.6715 8.2348 19.975 7.50042 19.975 6.63876C19.975 5.77709 19.6715 5.04271 19.0644 4.43563C18.4573 3.82855 17.7229 3.525 16.8613 3.525C15.9996 3.525 15.2652 3.82855 14.6581 4.43563C14.0511 5.04271 13.7475 5.77709 13.7475 6.63876C13.7475 7.50042 14.0511 8.2348 14.6581 8.84188C15.2652 9.44897 15.9996 9.75251 16.8613 9.75251C17.7229 9.75251 18.4573 9.44897 19.0644 8.84188ZM30.08 9.75251C30.9809 9.75251 31.7348 9.44897 32.3419 8.84188C32.949 8.2348 33.2525 7.50042 33.2525 6.63876C33.2525 5.77709 32.949 5.04271 32.3419 4.43563C31.7348 3.82855 30.9809 3.525 30.08 3.525C29.2575 3.525 28.5427 3.82855 27.9357 4.43563C27.3286 5.04271 27.025 5.77709 27.025 6.63876C27.025 7.50042 27.3286 8.2348 27.9357 8.84188C28.5427 9.44897 29.2575 9.75251 30.08 9.75251Z" fill="#0053A0"/>
</svg>
