<svg width="15" height="15" viewBox="0 0 15 15" fill="none" xmlns="http://www.w3.org/2000/svg">
<path d="M14.2885 10.8901V12.9423C14.2893 13.1328 14.2503 13.3214 14.1739 13.4959C14.0976 13.6705 13.9857 13.8272 13.8453 13.956C13.7049 14.0847 13.5392 14.1828 13.3587 14.2438C13.1782 14.3049 12.987 14.3275 12.7973 14.3104C10.6923 14.0817 8.67034 13.3624 6.89385 12.2103C5.24104 11.1601 3.83976 9.75878 2.7895 8.10598C1.63343 6.32142 0.91398 4.28962 0.689443 2.1752C0.672349 1.98604 0.69483 1.79539 0.755455 1.61539C0.81608 1.43539 0.91352 1.26998 1.04157 1.1297C1.16962 0.989425 1.32548 0.877346 1.49922 0.800604C1.67297 0.723861 1.86078 0.684136 2.05072 0.683957H4.10289C4.43487 0.68069 4.75671 0.798248 5.00842 1.01472C5.26013 1.23119 5.42454 1.53181 5.47101 1.86054C5.55762 2.51728 5.71826 3.16211 5.94985 3.78274C6.04188 4.02758 6.0618 4.29367 6.00724 4.54948C5.95269 4.8053 5.82594 5.04011 5.64202 5.2261L4.77327 6.09485C5.74706 7.80742 7.16504 9.2254 8.87761 10.1992L9.74637 9.33045C9.93235 9.14653 10.1672 9.01978 10.423 8.96522C10.6788 8.91066 10.9449 8.93058 11.1897 9.02262C11.8104 9.25421 12.4552 9.41484 13.1119 9.50146C13.4442 9.54834 13.7477 9.71571 13.9646 9.97175C14.1816 10.2278 14.2968 10.5546 14.2885 10.8901Z" stroke="#F3F3E6" stroke-width="1.33333" stroke-linecap="round" stroke-linejoin="round"/>
</svg>
