<svg width="15" height="15" viewBox="0 0 15 15" fill="none" xmlns="http://www.w3.org/2000/svg">
<path d="M14.2887 10.8901V12.9423C14.2895 13.1328 14.2504 13.3214 14.1741 13.4959C14.0978 13.6705 13.9858 13.8272 13.8455 13.956C13.7051 14.0847 13.5393 14.1828 13.3589 14.2438C13.1784 14.3049 12.9872 14.3275 12.7974 14.3104C10.6925 14.0817 8.67051 13.3624 6.89402 12.2103C5.24122 11.1601 3.83993 9.75878 2.78967 8.10598C1.6336 6.32142 0.914152 4.28962 0.689615 2.1752C0.672521 1.98604 0.695002 1.79539 0.755627 1.61539C0.816252 1.43539 0.913692 1.26998 1.04174 1.1297C1.1698 0.989425 1.32566 0.877346 1.4994 0.800604C1.67314 0.723861 1.86095 0.684136 2.05089 0.683957H4.10306C4.43504 0.68069 4.75688 0.798248 5.00859 1.01472C5.2603 1.23119 5.42471 1.53181 5.47118 1.86054C5.5578 2.51728 5.71843 3.16211 5.95002 3.78274C6.04205 4.02758 6.06197 4.29367 6.00742 4.54948C5.95286 4.8053 5.82611 5.04011 5.64219 5.2261L4.77344 6.09485C5.74723 7.80742 7.16522 9.2254 8.87778 10.1992L9.74654 9.33045C9.93253 9.14653 10.1673 9.01978 10.4232 8.96522C10.679 8.91066 10.9451 8.93058 11.1899 9.02262C11.8105 9.25421 12.4554 9.41484 13.1121 9.50146C13.4444 9.54834 13.7479 9.71571 13.9648 9.97175C14.1817 10.2278 14.297 10.5546 14.2887 10.8901Z" stroke="#F3F3E6" stroke-width="1.33333" stroke-linecap="round" stroke-linejoin="round"/>
</svg>
