<svg width="26" height="29" viewBox="0 0 26 29" fill="none" xmlns="http://www.w3.org/2000/svg">
<path d="M14.5 0H18.0888C18.3498 1.29594 19.0675 2.93081 20.3272 4.553C21.5597 6.14256 23.1946 7.25 25.375 7.25V10.875C22.1977 10.875 19.8106 9.39962 18.125 7.55994V19.9375C18.125 21.7299 17.5935 23.482 16.5977 24.9724C15.6019 26.4627 14.1865 27.6242 12.5306 28.3102C10.8746 28.9961 9.05245 29.1755 7.2945 28.8259C5.53655 28.4762 3.92176 27.6131 2.65435 26.3457C1.38694 25.0782 0.523816 23.4635 0.174137 21.7055C-0.175541 19.9476 0.00392664 18.1254 0.689846 16.4694C1.37576 14.8135 2.53733 13.3981 4.02765 12.4023C5.51797 11.4065 7.27011 10.875 9.0625 10.875V14.5C7.98707 14.5 6.93578 14.8189 6.04159 15.4164C5.1474 16.0139 4.45046 16.8631 4.03891 17.8567C3.62736 18.8502 3.51968 19.9435 3.72948 20.9983C3.93929 22.0531 4.45716 23.0219 5.21761 23.7824C5.97806 24.5428 6.94693 25.0607 8.0017 25.2705C9.05647 25.4803 10.1498 25.3726 11.1433 24.9611C12.1369 24.5495 12.9861 23.8526 13.5836 22.9584C14.1811 22.0642 14.5 21.0129 14.5 19.9375V0Z" fill="white"/>
</svg>
