<svg width="25" height="25" viewBox="0 0 25 25" fill="none" xmlns="http://www.w3.org/2000/svg">
<path d="M0 3.28944V21.7107C0 23.5276 1.47284 25.0002 3.28944 25.0002H21.7107C23.5276 25.0002 25.0002 23.5273 25.0002 21.7107V3.28944C25.0002 1.47253 23.5273 0 21.7107 0H3.28944C1.47284 0 0 1.47284 0 3.28944ZM9.19174 15.2478C7.50296 15.3612 6.15543 14.0256 6.25481 12.3362C6.3395 10.8937 7.53577 9.74644 9.00393 9.74644C10.4721 9.74644 11.758 10.9818 11.758 12.5002C11.758 14.0187 10.6274 15.1512 9.19174 15.2478ZM15.9966 15.254C14.4731 15.254 13.2428 14.0187 13.2428 12.5002C13.2428 10.9818 14.3734 9.84925 15.8091 9.75269C17.4978 9.63925 18.8454 10.9749 18.746 12.6643C18.6613 14.1068 17.465 15.254 15.9969 15.254H15.9966Z" fill="white"/>
</svg>
