<svg width="25" height="25" viewBox="0 0 25 25" fill="none" xmlns="http://www.w3.org/2000/svg">
<path d="M0 3.28942V21.7106C0 23.5275 1.47283 25 3.28942 25H21.7106C23.5275 25 25 23.5272 25 21.7106V3.28942C25 1.47252 23.5272 0 21.7106 0H3.28942C1.47283 0 0 1.47283 0 3.28942ZM9.19167 15.2477C7.5029 15.3611 6.15539 14.0255 6.25476 12.3361C6.33945 10.8936 7.53572 9.74637 9.00386 9.74637C10.472 9.74637 11.758 10.9817 11.758 12.5002C11.758 14.0186 10.6273 15.1511 9.19167 15.2477ZM15.9964 15.2539C14.473 15.2539 13.2427 14.0186 13.2427 12.5002C13.2427 10.9817 14.3733 9.84918 15.8089 9.75262C17.4977 9.63918 18.8452 10.9748 18.7459 12.6642C18.6612 14.1067 17.4649 15.2539 15.9968 15.2539H15.9964Z" fill="white"/>
</svg>
