<svg width="25" height="25" viewBox="0 0 25 25" fill="none" xmlns="http://www.w3.org/2000/svg">
<path d="M0 3.28938V21.7103C0 23.5272 1.47281 24.9997 3.28938 24.9997H21.7103C23.5272 24.9997 24.9997 23.5269 24.9997 21.7103V3.28938C24.9997 1.4725 23.5269 0 21.7103 0H3.28938C1.47281 0 0 1.47281 0 3.28938ZM9.19156 15.2475C7.50281 15.3609 6.15531 14.0253 6.25469 12.3359C6.33938 10.8934 7.53562 9.74625 9.00375 9.74625C10.4719 9.74625 11.7578 10.9816 11.7578 12.5C11.7578 14.0184 10.6272 15.1509 9.19156 15.2475ZM15.9963 15.2537C14.4728 15.2537 13.2425 14.0184 13.2425 12.5C13.2425 10.9816 14.3731 9.84906 15.8088 9.7525C17.4975 9.63906 18.845 10.9747 18.7456 12.6641C18.6609 14.1066 17.4647 15.2537 15.9966 15.2537H15.9963Z" fill="white"/>
</svg>
