<svg width="15" height="15" viewBox="0 0 15 15" fill="none" xmlns="http://www.w3.org/2000/svg">
<path d="M14.289 10.8901V12.9423C14.2898 13.1328 14.2508 13.3214 14.1744 13.4959C14.0981 13.6705 13.9862 13.8272 13.8458 13.956C13.7054 14.0847 13.5397 14.1828 13.3592 14.2438C13.1787 14.3049 12.9875 14.3275 12.7978 14.3104C10.6928 14.0817 8.67084 13.3624 6.89435 12.2103C5.24155 11.1601 3.84026 9.75878 2.79 8.10598C1.63393 6.32142 0.914481 4.28962 0.689944 2.1752C0.67285 1.98604 0.695331 1.79539 0.755956 1.61539C0.816581 1.43539 0.914021 1.26998 1.04207 1.1297C1.17013 0.989425 1.32598 0.877346 1.49973 0.800604C1.67347 0.723861 1.86128 0.684136 2.05122 0.683957H4.10339C4.43537 0.68069 4.75721 0.798248 5.00892 1.01472C5.26063 1.23119 5.42504 1.53181 5.47151 1.86054C5.55812 2.51728 5.71876 3.16211 5.95035 3.78274C6.04238 4.02758 6.0623 4.29367 6.00774 4.54948C5.95319 4.8053 5.82644 5.04011 5.64252 5.2261L4.77377 6.09485C5.74756 7.80742 7.16554 9.2254 8.87811 10.1992L9.74687 9.33045C9.93285 9.14653 10.1677 9.01978 10.4235 8.96522C10.6793 8.91066 10.9454 8.93058 11.1902 9.02262C11.8109 9.25421 12.4557 9.41484 13.1124 9.50146C13.4447 9.54834 13.7482 9.71571 13.9651 9.97175C14.1821 10.2278 14.2973 10.5546 14.289 10.8901Z" stroke="#F3F3E6" stroke-width="1.33333" stroke-linecap="round" stroke-linejoin="round"/>
</svg>
