<svg width="24" height="17" viewBox="0 0 24 17" fill="none" xmlns="http://www.w3.org/2000/svg">
<path d="M12.0773 0H12.2108C13.4438 0.00453777 19.6917 0.0499158 21.3763 0.506718C21.8856 0.646131 22.3497 0.917874 22.7222 1.29479C23.0946 1.67171 23.3625 2.14059 23.499 2.6546C23.6505 3.22938 23.757 3.99021 23.829 4.77525L23.844 4.93256L23.877 5.32583L23.889 5.48314C23.9865 6.86565 23.9985 8.16042 24 8.44328V8.55672C23.9985 8.85016 23.985 10.2327 23.877 11.6727L23.865 11.8315L23.8515 11.9888C23.7765 12.854 23.6655 13.7131 23.499 14.3454C23.3625 14.8594 23.0946 15.3283 22.7222 15.7052C22.3497 16.0821 21.8856 16.3539 21.3763 16.4933C19.6362 16.9652 13.0223 16.9985 12.1058 17H11.8927C11.4292 17 9.51209 16.9909 7.50197 16.9213L7.24695 16.9123L7.11645 16.9062L6.85993 16.8956L6.60341 16.885C4.93831 16.8109 3.35271 16.6914 2.62216 16.4918C2.11307 16.3525 1.64913 16.081 1.27666 15.7043C0.904186 15.3277 0.636225 14.8591 0.499531 14.3454C0.333021 13.7147 0.222014 12.854 0.147009 11.9888L0.135008 11.83L0.123008 11.6727C0.0485482 10.6477 0.00752345 9.62065 0 8.59302L0 8.40698C0.00300019 8.08177 0.0150009 6.95791 0.096006 5.71759L0.106507 5.56179L0.111007 5.48314L0.123008 5.32583L0.15601 4.93256L0.171011 4.77525C0.243015 3.99021 0.349522 3.22787 0.501031 2.6546C0.637496 2.14059 0.905355 1.67171 1.27784 1.29479C1.65033 0.917874 2.11439 0.646131 2.62366 0.506718C3.35421 0.310081 4.93981 0.189074 6.60491 0.113444L6.85993 0.102856L7.11795 0.0937808L7.24695 0.089243L7.50347 0.0786549C8.93112 0.0323749 10.3594 0.00665806 11.7877 0.00151266L12.0773 0ZM9.6006 4.85541V12.1431L15.8365 8.50076L9.6006 4.85541Z" fill="white"/>
</svg>
